<svg width="4000" height="4000" viewBox="0 0 4000 4000" xmlns="http://www.w3.org/2000/svg">
    <defs/>
    <path fill="#2b4648" stroke="none" d="M 2845.4 163.7 L 3625 163.7 L 3625 830.7 L 2845.4 830.7 Z"/>
    <path fill="#2aadab" stroke="none" d="M 3557.5 4.1 L 2882.1 4.1 C 2755.3 4.1 2651.3 107.9 2651.3 234.9 L 2651.3 880.5 L 3749.7 1514.6 C 3763.1 1522.3 3775.8 1530.5 3788.4 1539.2 L 3788.4 234.9 C 3788.4 107.9 3684.4 4.1 3557.5 4.1 Z M 3423.5 627.7 C 3423.5 698.9 3365.3 757.1 3294.1 757.1 L 3017.5 757.1 C 2946.3 757.1 2888.1 698.9 2888.1 627.7 L 2888.1 351.1 C 2888.1 279.9 2946.3 221.7 3017.5 221.7 L 3294.1 221.7 C 3365.3 221.7 3423.5 279.9 3423.5 351.1 L 3423.5 627.7 Z M 3573.8 723 L 3477.5 626.7 L 3477.5 354.9 L 3576.6 255.8 L 3573.8 723 Z"/>
    <path fill="#2b4648" stroke="none" d="M 2811.9 3880.8 L 3689.9 3880.8 L 3689.9 2869.6 L 2924.8 2998.7 Z"/>
    <path fill="#2aadab" stroke="none" d="M 3749.7 2489.4 L 2651.3 3123.6 L 2651.3 3769.2 C 2651.3 3896 2755.1 4000 2882.1 4000 L 3557.5 4000 C 3684.3 4000 3788.3 3896.2 3788.3 3769.2 L 3788.3 2464.8 C 3775.8 2473.5 3763.1 2481.8 3749.7 2489.4 Z M 3624.9 3556.1 C 3624.9 3569.1 3620.2 3587.9 3608.6 3601.2 C 3597 3614.2 3581.4 3621.3 3563.5 3627.7 L 3510.3 3646.1 C 3492.9 3646.1 3476.5 3654.3 3461.3 3654.3 C 3446 3654.3 3429.9 3646.1 3412.3 3646.1 C 3395 3639.5 3376.9 3634.2 3359.1 3627.7 C 3341.4 3621.1 3327.7 3614.2 3316.3 3601.2 C 3304.7 3588.2 3297.9 3569.4 3297.9 3556.1 C 3297.9 3536.4 3304.7 3522.2 3316.3 3509.1 C 3327.9 3496.1 3341.4 3483 3359.1 3476.4 C 3376.7 3469.8 3394.8 3464.5 3412.3 3458 L 3461.3 3458 C 3497 3458 3529.8 3463.3 3559.4 3476.4 L 3559.4 3202.5 L 3167 3319.1 L 3167 3686.9 C 3167 3699.9 3162.3 3718.7 3150.7 3732 C 3139.1 3745 3123.5 3752.1 3105.6 3758.5 C 3087.9 3765.1 3070.2 3770.4 3052.4 3776.8 C 3035.1 3776.8 3018.8 3785 3003.4 3785 C 2988 3785 2972 3776.8 2954.4 3776.8 C 2937.1 3770.2 2919 3764.9 2901.2 3758.5 C 2883.5 3751.9 2869.8 3745 2858.4 3732 C 2846.8 3719 2840 3700.2 2840 3686.9 C 2840 3667.2 2846.8 3653 2858.4 3639.9 C 2870 3626.9 2883.7 3613.8 2901.2 3607.2 C 2918.9 3600.6 2936.9 3595.3 2954.4 3588.8 L 3003.4 3588.8 C 3039.1 3588.8 3071.9 3594.1 3101.5 3607.2 L 3101.5 3110.4 C 3101.5 3103.8 3105.3 3090.3 3111.7 3083.9 C 3118.3 3070.8 3126.1 3065.5 3136.3 3065.5 L 3561.5 2934.8 L 3561.5 2934.8 L 3575.9 2934.8 C 3589.6 2934.8 3601 2934 3610.6 2947.1 C 3620.1 2953.7 3625 2966.8 3625 2979.8 L 3625 3556.2 L 3624.9 3556.1 L 3624.9 3556.1 Z"/>
    <path fill="#2aadab" stroke="none" d="M 3491.9 1659 C 3755.9 1811.5 3755.9 2192.6 3491.9 2345.1 L 2107.3 3144.5 L 722.6 3943.9 C 458.6 4096.4 128.5 3905.8 128.5 3600.9 L 128.5 2002.1 L 128.5 403.1 C 128.5 98.2 458.6 -92.4 722.6 60.1 L 2107.2 859.5 L 3491.9 1659 Z"/>
</svg>
